<svg width="89" height="59" viewBox="0 0 89 59" fill="none" xmlns="http://www.w3.org/2000/svg">
<path d="M7.31 9.39L0.599998 10.01L0 3.48001L20.12 1.63L20.72 8.16L14.01 8.77L15.74 27.62L9.04 28.24L7.31 9.39Z" fill="#35B6B4"/>
<path d="M25.36 0L35.56 0.419998L43.65 28.27L35.8 27.95L34.42 23.18L24.61 22.78L22.85 27.42L15 27.1L25.36 0.0100098V0ZM32.72 16.82L30.51 8.47L29.72 8.44L26.83 16.58L32.72 16.82Z" fill="#35B6B4"/>
<path d="M63.4499 15.31C63.2899 18.53 60.8099 25.69 52.7699 26.36C46.0699 26.91 40.2899 22.07 39.6699 14.6C39.0499 7.12001 43.9699 1.40001 50.6699 0.850013C58.3599 0.220013 62.3099 6.67001 62.9999 9.82001L56.4499 10.36C55.9799 9.36001 54.5599 6.95001 51.1999 7.22001C48.2199 7.47001 45.9099 10.15 46.2299 14.05C46.5499 17.95 49.2699 20.22 52.2499 19.98C55.6499 19.7 56.7699 16.75 56.8999 15.85L63.4499 15.31Z" fill="#35B6B4"/>
<path d="M69.3406 0L79.3606 0.430008L87.2706 27.79L79.5606 27.46L78.2206 22.77L68.5906 22.36L66.8506 26.92L59.1406 26.59L69.3406 0.0100098V0ZM76.5506 16.51L74.3906 8.31L73.6206 8.28L70.7706 16.26L76.5506 16.51Z" fill="#35B6B4"/>
<path d="M8.01063 39.05L1.02063 39.7L0.390625 32.89L21.3806 30.96L22.0006 37.77L15.0106 38.41L16.8106 58.07L9.82063 58.72L8.01063 39.05Z" fill="white"/>
<path d="M26.5489 30.42L36.5689 30.83L44.5089 58.18L36.7989 57.86L35.4489 53.17L25.8189 52.77L24.0889 57.33L16.3789 57.01L26.5489 30.41V30.42ZM33.7889 46.93L31.6189 38.73L30.8489 38.7L28.0089 46.69L33.7889 46.93Z" fill="white"/>
<path d="M64.7099 45.4801C64.5399 48.7701 62.0199 56.0701 53.8099 56.7501C46.9799 57.3101 41.0799 52.3801 40.4499 44.7501C39.8199 37.1201 44.8399 31.2901 51.6699 30.7201C59.5099 30.0701 63.5499 36.6601 64.2499 39.8801L57.5599 40.4301C57.0799 39.4101 55.6399 36.9501 52.1999 37.2301C49.1599 37.4801 46.8098 40.2201 47.1298 44.2001C47.4598 48.1801 50.2298 50.5001 53.2698 50.2501C56.7398 49.9601 57.8798 46.9601 58.0198 46.0401L64.7099 45.4901V45.4801Z" fill="white"/>
<path d="M70.4998 30.41L80.2998 30.83L88.0298 57.59L80.4898 57.27L79.1698 52.68L69.7498 52.28L68.0498 56.74L60.5098 56.42L70.4898 30.42L70.4998 30.41ZM77.5498 46.57L75.4398 38.55L74.6898 38.52L71.8998 46.33L77.5498 46.57Z" fill="white"/>
</svg>
